<?xml version="1.0" encoding="utf-8"?>
<svg fill="white" role="img" viewBox="0 0 24 24" xmlns="http://www.w3.org/2000/svg">
  <title>C++</title>
  <path d="M 22.394 6 C 22.227 5.71 21.996 5.457 21.742 5.31 L 12.926 0.22 C 12.417 -0.074 11.586 -0.074 11.078 0.22 L 2.26 5.31 C 1.752 5.603 1.337 6.323 1.337 6.91 L 1.337 17.09 C 1.337 17.384 1.441 17.71 1.608 18 C 1.775 18.29 2.006 18.543 2.26 18.69 L 11.076 23.78 C 11.584 24.073 12.416 24.073 12.924 23.78 L 21.74 18.69 C 21.994 18.543 22.225 18.29 22.392 18 C 22.559 17.71 22.662 17.384 22.662 17.09 L 22.662 6.91 C 22.665 6.616 22.562 6.29 22.394 6 L 22.394 6 Z M 12 19.11 C 8.08 19.11 4.891 15.92 4.891 12 C 4.891 8.08 8.081 4.89 12.001 4.89 C 14.539 4.895 16.883 6.248 18.157 8.443 L 15.081 10.223 C 14.445 9.124 13.271 8.446 12.001 8.443 C 10.037 8.445 8.446 10.036 8.444 12 C 8.447 13.963 10.037 15.553 12 15.555 C 13.27 15.552 14.443 14.875 15.08 13.777 L 18.158 15.557 C 16.884 17.752 14.539 19.105 12 19.11 Z"/>
</svg>